<svg width="31" height="45" viewBox="0 0 31 45" fill="none" xmlns="http://www.w3.org/2000/svg">
<path d="M15.1656 5.69085C15.5976 5.69085 15.9473 5.34085 15.9473 4.90885V0.781594C15.9473 0.349594 15.5976 0 15.1656 0C14.734 0 14.384 0.349594 14.384 0.781594V4.90885C14.384 5.34085 14.734 5.69085 15.1656 5.69085Z" fill="black"/>
<path d="M11.3268 6.27817C11.4795 6.43087 11.6794 6.5072 11.8798 6.5072C12.0797 6.5072 12.2796 6.43087 12.4323 6.27817C12.7377 5.97279 12.7377 5.47805 12.4323 5.17266L9.51338 2.25409C9.20837 1.94908 8.71362 1.94911 8.40824 2.25449C8.10285 2.5595 8.10285 3.05459 8.40824 3.3596L11.3268 6.27817Z" fill="black"/>
<path d="M18.4528 6.5072C18.6527 6.5072 18.853 6.43087 19.0057 6.27817L21.9239 3.3596C22.2289 3.05421 22.2289 2.55947 21.9235 2.25409C21.6185 1.94908 21.1237 1.94911 20.8184 2.25449L17.9002 5.17303C17.5948 5.47804 17.5948 5.97317 17.9002 6.27817C18.0525 6.43087 18.2528 6.5072 18.4528 6.5072Z" fill="black"/>
<path d="M10.8883 18.5948C11.0935 18.5948 11.2946 18.5113 11.4405 18.3654C11.5864 18.2195 11.6699 18.0184 11.6699 17.8132C11.6699 17.6076 11.5864 17.4054 11.4405 17.2595C11.2957 17.1148 11.0935 17.0312 10.8883 17.0312C10.6819 17.0312 10.4808 17.1148 10.3357 17.2595C10.1898 17.4054 10.1067 17.6065 10.1067 17.8132C10.1067 18.0184 10.1898 18.2195 10.3357 18.3654C10.4805 18.5113 10.6827 18.5948 10.8883 18.5948Z" fill="black"/>
<path d="M29.8823 41.3571L25.602 39.3467L24.2951 31.8024C25.3401 31.4558 26.2438 30.7869 26.8901 29.8703C27.6883 28.7376 27.9975 27.3615 27.7609 25.9963L24.707 8.36555C24.6333 7.94035 24.2282 7.65538 23.8033 7.72908L15.166 9.22539L6.52828 7.72908C6.10233 7.65463 5.69866 7.94035 5.62496 8.36592L2.57074 25.9963C2.12778 28.5532 3.64714 31.0045 6.03694 31.802L4.72957 39.3467L0.449255 41.3571C0.140467 41.5022 -0.0386528 41.8306 0.00707953 42.1689C0.0524339 42.5068 0.312086 42.7763 0.648086 42.8348L8.94075 44.2711C8.98535 44.279 9.02992 44.2828 9.07414 44.2828C9.08057 44.2828 9.08663 44.2828 9.09267 44.2824C9.51674 44.2737 9.85766 43.9271 9.85766 43.5012C9.85766 43.2668 9.75485 43.0571 9.59158 42.9135L6.27013 39.6139L7.5771 32.0681C7.61414 32.0689 7.65079 32.0704 7.68783 32.0704C10.2148 32.0704 12.3624 30.2611 12.7944 27.7674L15.166 14.0768L17.5377 27.7674C17.9697 30.2607 20.1172 32.0704 22.6442 32.0704H22.6445C22.6812 32.0704 22.7179 32.0689 22.7549 32.0681L24.0619 39.6139L20.7072 42.9467C20.4649 43.1871 20.4067 43.5567 20.5635 43.8599C20.6992 44.1229 20.9691 44.2828 21.2575 44.2828C21.3017 44.2828 21.3467 44.279 21.3913 44.2714L29.6835 42.8348C30.0199 42.7766 30.2792 42.5072 30.3249 42.1689C30.3703 41.831 30.1911 41.5022 29.8823 41.3571ZM7.03169 9.40267L14.175 10.6401L13.5344 14.3365L6.39145 13.099L7.03169 9.40267ZM7.06383 30.4535C5.0947 30.1122 3.76997 28.2323 4.11126 26.2631L6.1246 14.6392L13.2675 15.8766L11.2538 27.5006C10.9522 29.2425 9.45249 30.5072 7.68783 30.5072C7.48033 30.5072 7.2702 30.489 7.06383 30.4535ZM6.76372 42.3076L3.35875 41.718L5.26778 40.8215L6.76372 42.3076ZM19.0778 27.5006L17.0644 15.8766L24.207 14.6392L26.2207 26.2631C26.3859 27.2171 26.1701 28.1782 25.6122 28.9697C25.0548 29.7611 24.2221 30.288 23.2682 30.4535C23.0618 30.489 22.8516 30.5072 22.6445 30.5072C20.8795 30.5072 19.3798 29.2425 19.0778 27.5006ZM23.2999 9.40267L23.9405 13.099L16.7976 14.3365L16.1574 10.6401L23.2999 9.40267ZM23.5679 42.3076L25.0642 40.8215L26.9729 41.718L23.5679 42.3076Z" fill="black"/>
<path d="M19.1871 16.4956C18.9807 16.4956 18.7797 16.5791 18.6338 16.725C18.489 16.8698 18.4055 17.0708 18.4055 17.2772C18.4055 17.4824 18.489 17.6846 18.6338 17.8298C18.7797 17.9757 18.9819 18.0588 19.1871 18.0588C19.3927 18.0588 19.5938 17.9757 19.7397 17.8298C19.8856 17.6846 19.9687 17.4824 19.9687 17.2772C19.9687 17.0708 19.8856 16.8698 19.7397 16.725C19.5949 16.5791 19.3927 16.4956 19.1871 16.4956Z" fill="black"/>
<path d="M23.9542 17.8298C24.1 17.6846 24.1836 17.4824 24.1836 17.2772C24.1836 17.072 24.1 16.8698 23.9542 16.725C23.8083 16.5791 23.6072 16.4956 23.402 16.4956C23.1956 16.4956 22.9945 16.5791 22.8483 16.725C22.7035 16.8698 22.6204 17.072 22.6204 17.2772C22.6204 17.4824 22.7035 17.6846 22.8483 17.8298C22.9945 17.9757 23.1956 18.0588 23.402 18.0588C23.6072 18.0588 23.8083 17.9757 23.9542 17.8298Z" fill="black"/>
<path d="M21.6739 19.3735C21.4676 19.3735 21.2665 19.4567 21.1206 19.6026C20.9755 19.7477 20.8923 19.9488 20.8923 20.1552C20.8923 20.3615 20.9755 20.5626 21.1206 20.7085C21.2665 20.8532 21.4676 20.9368 21.6739 20.9368C21.8792 20.9368 22.0802 20.8532 22.2261 20.7085C22.372 20.5626 22.4555 20.3615 22.4555 20.1552C22.4555 19.9496 22.372 19.7477 22.2261 19.6026C22.0814 19.4567 21.8792 19.3735 21.6739 19.3735Z" fill="black"/>
<path d="M6.93007 19.1128C6.72446 19.1128 6.52339 19.1963 6.3775 19.3411C6.23274 19.487 6.14844 19.688 6.14844 19.8948C6.14844 20.0996 6.23274 20.3007 6.3775 20.447C6.52339 20.5928 6.72446 20.6764 6.93007 20.6764C7.1353 20.6764 7.33749 20.5928 7.48338 20.447C7.62813 20.3011 7.71166 20.0996 7.71166 19.8948C7.71166 19.6884 7.62813 19.487 7.48338 19.3411C7.33749 19.1959 7.13643 19.1128 6.93007 19.1128Z" fill="black"/>
<path d="M10.6567 21.6942C10.6567 21.489 10.5736 21.2868 10.4277 21.142C10.2825 20.9961 10.0807 20.9126 9.8751 20.9126C9.66987 20.9126 9.46879 20.9961 9.3229 21.142C9.17701 21.2868 9.09351 21.489 9.09351 21.6942C9.09351 21.9006 9.17701 22.102 9.3229 22.2468C9.46879 22.3927 9.66987 22.4758 9.8751 22.4758C10.0807 22.4758 10.2829 22.3927 10.4277 22.2468C10.5736 22.102 10.6567 21.8998 10.6567 21.6942Z" fill="black"/>
</svg>
