<svg width="42" height="42" viewBox="0 0 42 42" fill="none" xmlns="http://www.w3.org/2000/svg">
<path d="M27.3182 16.0065C27.1224 16.0065 26.9009 16.0632 26.715 16.1267C26.1446 16.3244 25.6291 16.6857 25.2175 17.1729L16.7975 27.034L26.6571 18.617C27.1466 18.2043 27.5072 17.6854 27.7037 17.1151C27.8182 16.7851 27.9112 16.3459 27.6973 16.1343C27.6043 16.0413 27.4697 16.0065 27.3182 16.0065ZM34.483 17.3664C34.4033 17.3664 34.3235 17.3509 34.2479 17.3206L32.8499 16.7537L32.0774 16.9238C31.7387 16.9983 31.4046 16.784 31.3324 16.4464C31.2572 16.1089 31.4692 15.7748 31.8075 15.7004L32.769 15.4887C32.8945 15.4611 33.0222 15.4721 33.1394 15.5193L34.4686 16.0575L36.1336 15.2865C36.2602 15.2287 36.4022 15.2132 36.5364 15.2449L37.829 15.5409L39.5113 15.6599C39.4062 15.3084 39.2906 14.96 39.1659 14.6145L37.7905 14.3556C37.6563 14.3307 37.5327 14.263 37.439 14.1613L36.3365 12.9368L34.2548 13.7562C33.9324 13.8817 33.5687 13.7233 33.4417 13.402C33.3174 13.08 33.4746 12.7161 33.797 12.5906L36.2832 11.6128C36.5247 11.518 36.8033 11.5833 36.9768 11.7757L38.2285 13.165L38.6046 13.2361C38.162 12.2595 37.6355 11.318 37.0293 10.42C36.8358 10.1339 36.9091 9.74383 37.1963 9.55032C37.4847 9.35719 37.8736 9.43241 38.0671 9.71852C38.9387 11.01 39.6542 12.3831 40.2049 13.8174L40.2101 13.8314L40.2158 13.8458L40.2211 13.8598L40.2256 13.8741C40.5106 14.6213 40.751 15.3836 40.9453 16.1603L40.9498 16.1747L40.9532 16.1898L40.9543 16.1921L40.9574 16.2053L40.9608 16.2193C41.3584 17.8218 41.5606 19.4803 41.5606 21.1592C41.5606 26.2713 39.7003 31.0944 36.2983 34.8584L36.2896 34.8682L36.2809 34.8773L36.2734 34.8871H36.2723C36.0451 35.1381 35.8089 35.386 35.5689 35.6264C31.7051 39.4925 26.5664 41.6204 21.1012 41.6204C16.6236 41.6204 12.3698 40.2004 8.80454 37.5143C8.52788 37.3064 8.47117 36.9122 8.68094 36.6382C8.88843 36.3608 9.28188 36.3049 9.55816 36.5135C12.9064 39.0359 16.898 40.3675 21.1012 40.3675C26.2323 40.3675 31.055 38.3696 34.6818 34.7416C34.8731 34.5504 35.0586 34.3561 35.2412 34.1584C35.372 33.3303 35.0915 31.8798 34.9222 31.1893L33.6988 30.0403C33.4868 29.8415 33.4387 29.5255 33.5816 29.2753L34.7004 27.2982L33.7566 25.1639C33.715 25.0687 33.6965 24.9659 33.7052 24.8623C33.7388 24.4352 33.763 23.9337 33.763 23.5962C33.1632 23.5633 32.0033 23.5448 30.9983 23.5459H30.9972C30.6521 23.5459 30.3724 23.2662 30.3724 22.9212C30.3701 22.575 30.6498 22.2941 30.9949 22.2941C31.0792 22.2941 31.1619 22.2941 31.2428 22.2941C34.4437 22.2941 34.5639 22.4045 34.7571 22.5848C34.9929 22.8051 35.0432 23.0939 35.0061 24.0486C34.9952 24.3434 34.9766 24.6307 34.9645 24.8L35.9718 27.0787C36.0527 27.2589 36.0428 27.4675 35.9446 27.6403L34.9143 29.4635L35.9117 30.4005C35.9979 30.4814 36.0613 30.583 36.0908 30.6968C36.1313 30.8506 36.3554 31.7278 36.4646 32.6924C38.9584 29.3845 40.3084 25.3745 40.3084 21.1592C40.3084 19.7271 40.15 18.3147 39.8431 16.9404L37.6922 16.7862C37.6597 16.784 37.6268 16.7798 37.5951 16.7734L36.4665 16.5145L34.7472 17.3086C34.661 17.3479 34.5737 17.3664 34.483 17.3664ZM30.1736 10.5379C30.0621 10.5379 29.9529 10.5107 29.8523 10.4506C29.4831 10.2322 29.2253 9.86517 29.1422 9.44565C29.0605 9.02612 29.1588 8.58806 29.4143 8.24602L29.7212 7.83857C30.1581 7.25312 30.9423 7.07927 31.5883 7.42585L31.9946 7.64657C32.2992 7.81022 32.4149 8.19045 32.2512 8.49508C32.0864 8.80009 31.7062 8.91348 31.4023 8.74983L30.9926 8.52911C30.9012 8.47998 30.7851 8.50378 30.7228 8.5892L30.4159 8.99775C30.358 9.0775 30.3615 9.15953 30.3701 9.20186C30.3777 9.24457 30.4061 9.32206 30.4926 9.3746C30.7897 9.55034 30.8879 9.93508 30.711 10.2322C30.592 10.4287 30.3845 10.5379 30.1736 10.5379ZM16.5514 12.8223C16.438 12.8223 16.3209 12.7916 16.2185 12.727C15.9256 12.5437 15.8371 12.1556 16.0219 11.863L16.5386 11.0361C16.6542 10.8535 16.8564 10.742 17.0692 10.742H21.5306L21.6923 10.4986L20.6677 9.51858C20.5453 9.40066 20.4742 9.23701 20.4742 9.06655V7.6923L19.2727 6.66426L18.5671 7.16582L18.6959 7.31664C18.9034 7.56004 18.8959 7.92174 18.674 8.15419L17.525 9.36891C17.5042 9.39083 17.4823 9.40936 17.4604 9.42826L16.1822 10.4506C16.0325 10.5697 15.8371 10.6143 15.6504 10.5708C15.4648 10.5281 15.3072 10.4026 15.2275 10.2288L14.6507 9.01403C14.5993 8.9082 14.5797 8.78912 14.594 8.67195L14.7686 7.21381L14.4946 6.38685C14.3918 6.08335 14.5373 5.75002 14.8321 5.61888L14.8975 5.58824L14.3276 5.7141C14.1341 5.75757 13.9311 5.70428 13.7792 5.572L12.1581 4.14862C10.469 5.03908 8.90581 6.18806 7.51759 7.57666C5.60137 9.49251 4.14097 11.7428 3.18966 14.1954L5.01177 14.4561C5.2597 14.4924 5.46193 14.6693 5.52732 14.9108L5.86142 16.1365L6.74204 16.9064C6.87849 17.0243 6.9552 17.1971 6.9552 17.3762V19.0233L8.79019 20.2479L10.7193 20.6096L10.7291 20.3681H10.2933C10.1875 20.3681 10.0847 20.342 9.99093 20.2906L8.13707 19.2682C7.90539 19.1405 7.77991 18.8805 7.82224 18.6205L8.1401 16.6377C8.16883 16.4608 8.27352 16.3036 8.42659 16.2072L9.48372 15.5454C9.76794 15.3663 10.1425 15.4437 10.3315 15.7223L11.2918 17.1283C11.4872 17.4144 11.412 17.8033 11.1256 17.9987C10.8417 18.1934 10.4505 18.12 10.2574 17.8351L9.63563 16.9261L9.33217 17.1173L9.12883 18.3835L10.4551 19.1163H11.3803C11.5496 19.1163 11.7155 19.1851 11.8323 19.3087C11.9483 19.4312 12.0137 19.5982 12.005 19.7675L11.9548 21.051L12.4299 21.3995L14.5415 20.5756C14.6802 20.5212 14.8355 20.5189 14.9765 20.5692L16.0722 20.9558C16.3976 21.0707 16.5692 21.429 16.452 21.7544C16.3398 22.081 15.9815 22.2514 15.6538 22.1369L14.7784 21.8277L12.9193 22.5542L13.4949 23.3724C13.6937 23.6551 13.6261 24.0452 13.3411 24.244C13.233 24.3226 13.1072 24.3585 12.9828 24.3585C12.7851 24.3585 12.5916 24.2659 12.4692 24.0921L10.9509 21.9283L8.43527 21.454C8.35212 21.44 8.27124 21.4059 8.20359 21.3602L5.9816 19.8809C5.80812 19.7653 5.70419 19.5676 5.70419 19.3601V17.6612L4.89499 16.9533C4.80314 16.8716 4.73551 16.7654 4.70376 16.6464L4.42708 15.6372L2.76786 15.3991C2.19223 17.2398 1.89406 19.1764 1.89406 21.1592C1.89406 25.9437 3.64736 30.498 6.84484 34.0337C8.08906 33.3772 9.4807 32.5166 10.9653 31.4799C11.2469 31.2822 11.6392 31.351 11.8357 31.6349C12.0356 31.918 11.9646 32.308 11.6826 32.5057C10.0072 33.6766 8.43753 34.6335 7.04478 35.338L7.03156 35.346L7.01831 35.3535L6.96579 35.3796L6.9518 35.3861L6.94955 35.3872C6.28095 35.7228 5.6528 35.9957 5.07831 36.2088C4.08883 36.5724 3.23541 36.7538 2.52108 36.7538C1.73003 36.7538 1.11091 36.532 0.667192 36.0887C-0.553973 34.8664 -0.0973808 32.3386 2.0252 28.5765C1.11623 26.2388 0.63999 23.7307 0.63999 21.1592C0.63999 15.694 2.76788 10.5564 6.63283 6.6915C10.4966 2.82693 15.636 0.699067 21.1012 0.699067C23.663 0.699067 26.1613 1.17187 28.4925 2.07291C32.3015 -0.0920027 34.8564 -0.562938 36.0874 0.668432C36.9964 1.57703 36.9726 3.22454 36.0187 5.56558C35.8297 6.0297 35.6036 6.52026 35.3436 7.03579L35.3372 7.04978L35.3308 7.06303L35.3228 7.07739L35.3198 7.08381L35.3164 7.09023L35.3088 7.10459C34.426 8.84128 33.1504 10.8437 31.5596 12.9991C31.4363 13.1651 31.2462 13.2524 31.055 13.2524C30.9273 13.2524 30.7961 13.2119 30.6846 13.1303C30.4061 12.9235 30.3459 12.5316 30.5516 12.2542C31.9866 10.3119 33.1534 8.50189 33.9936 6.92015C32.3453 5.42686 30.4782 4.24691 28.4671 3.41239C28.3341 3.4037 28.2041 3.35228 28.1001 3.26498C25.8967 2.40173 23.5284 1.95081 21.1012 1.95081C18.4 1.95081 15.7834 2.50565 13.3827 3.55863L14.368 4.42378L16.2324 4.01106C16.4184 3.97062 16.6115 4.01636 16.7589 4.13541C16.9079 4.25333 16.9929 4.43361 16.9929 4.62372V5.6147C16.9929 5.86037 16.8466 6.08337 16.6236 6.18466L15.8613 6.52899L16.0023 6.95038C16.0317 7.0392 16.0416 7.13068 16.0295 7.22366L15.8602 8.6425L16.0185 8.97697L16.6456 8.47655L17.3772 7.70216L17.1698 7.45948C17.0553 7.32644 17.0027 7.15033 17.0246 6.97685C17.0443 6.80186 17.1391 6.64464 17.2824 6.54183L18.9439 5.35996C19.1774 5.1929 19.4964 5.20728 19.7141 5.39399L21.5075 6.92883C21.6474 7.04788 21.7282 7.22138 21.7282 7.40393V8.79896L22.9377 9.95588C23.1561 10.1664 23.1932 10.5039 23.0239 10.7564L22.3847 11.7156C22.2702 11.8891 22.0745 11.9942 21.8647 11.9942H17.4158L17.0813 12.5282C16.9622 12.7183 16.7589 12.8223 16.5514 12.8223ZM18.6479 39.3307C18.5595 39.3307 18.4688 39.3111 18.3811 39.2718L16.2086 38.2483C16.0317 38.1651 15.9036 38.0045 15.8643 37.8125L15.325 35.2912C15.2528 34.9525 15.469 34.6203 15.8076 34.5474C16.1463 34.4752 16.4785 34.6902 16.5495 35.03L17.0235 37.2475L18.3943 37.8934C18.4359 37.8125 18.4741 37.7415 18.5005 37.6836C18.3637 37.3635 17.9827 36.6163 17.6505 35.9957C17.4963 35.7084 17.587 35.3524 17.8591 35.1755L19.0773 34.3845L20.0547 33.3512L20.3193 32.13C20.388 31.8151 20.684 31.6035 21.0052 31.6405L22.1871 31.7781L22.8995 30.6737L22.3795 29.2262C22.2604 28.9007 22.4297 28.5425 22.7563 28.4257C23.0806 28.3077 23.4389 28.4782 23.556 28.8025L24.1819 30.5414C24.2484 30.724 24.2235 30.9281 24.1184 31.0921L23.0303 32.7842C22.9014 32.9864 22.6679 33.0956 22.4297 33.0669L21.4236 32.9501L21.2422 33.7869C21.218 33.8984 21.1636 34.0024 21.085 34.0851L19.9337 35.2999C19.8997 35.3358 19.8615 35.3675 19.8211 35.394L19.0225 35.9129C19.7859 37.3688 19.786 37.5415 19.786 37.6813C19.786 37.8102 19.7859 38.0506 19.182 39.0325C19.0652 39.2249 18.8596 39.3307 18.6479 39.3307ZM5.68038 34.6063C4.46111 33.2113 3.44742 31.6742 2.6575 30.0357C2.02821 31.244 1.60681 32.2948 1.39818 33.1709C1.23226 33.8614 1.12717 34.7768 1.55199 35.2027C2.00213 35.6529 3.12956 35.5905 4.64666 35.0334C4.97359 34.9132 5.31868 34.7711 5.68038 34.6063ZM29.9483 2.70332C31.6068 3.49967 33.1613 4.52319 34.5703 5.75758C34.675 5.53043 34.7714 5.3078 34.8587 5.09236C35.573 3.34017 35.6989 2.05024 35.2026 1.55437C34.768 1.12048 33.8363 1.23538 33.1296 1.40773C32.2402 1.62505 31.1729 2.06005 29.9483 2.70332ZM13.5747 28.8799L11.6021 27.3844C11.3659 27.2064 11.2896 26.8855 11.4173 26.6168C11.5439 26.3488 11.8403 26.2071 12.1305 26.277L15.1655 27.0163L20.4307 20.85L13.4307 16.1146C13.4186 16.1067 13.4054 16.0968 13.3955 16.0893C13.1544 15.9003 13.0255 15.601 13.0516 15.2907C13.08 14.9611 13.2734 14.6693 13.5671 14.5132C14.2607 14.1406 15.0551 14.0816 15.7487 14.3503L23.4971 17.2583L24.2617 16.3626C24.8165 15.706 25.5233 15.2143 26.3064 14.9433C27.517 14.525 28.2128 14.878 28.5839 15.2472C28.9532 15.6176 29.3062 16.3146 28.8889 17.5248C28.6157 18.3079 28.1262 19.0158 27.4656 19.5729L26.5543 20.3507L29.4491 28.0519C29.7136 28.7401 29.6547 29.5342 29.2832 30.2281C29.1248 30.5229 28.833 30.7153 28.5053 30.7437C28.4781 30.7459 28.4509 30.747 28.4244 30.747C28.1429 30.747 27.8783 30.6212 27.7048 30.4005C27.6972 30.3888 27.6893 30.3767 27.6806 30.3646L22.9759 23.4072L16.7865 28.6921L17.5061 31.6545C17.5772 31.9429 17.4362 32.2422 17.1675 32.3692C17.0813 32.4097 16.9906 32.4293 16.8999 32.4293C16.709 32.4293 16.5208 32.3416 16.3999 32.181L14.9448 30.2629L14.2391 30.8661C14.0675 31.0124 13.86 31.0845 13.6503 31.0845C13.4209 31.0845 13.1903 30.995 13.0134 30.8177C12.677 30.4814 12.6574 29.9549 12.9654 29.5943L13.5747 28.8799ZM22.6316 18.2708L15.303 15.5193C15.1073 15.4437 14.8934 15.4207 14.6802 15.4483L21.2486 19.8919L22.6316 18.2708ZM23.934 22.5878L28.3481 29.1158C28.3742 28.903 28.3526 28.691 28.277 28.4979L25.5407 21.2158L23.934 22.5878Z" fill="black"/>
</svg>
