<svg width="51" height="35" viewBox="0 0 51 35" fill="none" xmlns="http://www.w3.org/2000/svg">
<path d="M18.7691 14.219C18.7691 10.7691 21.5762 7.96241 25.0254 7.96241C28.4757 7.96241 31.2824 10.7691 31.2824 14.219C31.2824 17.6686 28.4757 20.4753 25.0254 20.4753C21.5762 20.4753 18.7691 17.6686 18.7691 14.219ZM29.7313 21.3287C32.0342 19.7991 33.5569 17.1848 33.5569 14.219C33.5569 9.51429 29.7301 5.6875 25.0254 5.6875C20.3214 5.6875 16.4943 9.51429 16.4943 14.219C16.4943 17.1848 18.017 19.7991 20.3203 21.3287C15.1083 23.2513 11.3752 28.2543 11.3752 34.1262H13.6502C13.6502 27.8529 18.7533 22.7506 25.0254 22.7506C31.2987 22.7506 36.401 27.8529 36.401 34.1262H38.6763C38.6763 28.2543 34.9425 23.2513 29.7313 21.3287Z" fill="black"/>
<path d="M41.1061 15.6408C43.4093 14.1116 44.9325 11.4969 44.9325 8.53114C44.9325 3.82676 41.1057 0 36.401 0C34.1215 0 32.0538 0.902913 30.5219 2.36446C29.9546 2.90531 29.4644 3.52363 29.0623 4.20244C29.7721 4.48892 30.4475 4.84347 31.0733 5.26753C31.4755 4.6133 31.9933 4.03953 32.6003 3.57276C33.6551 2.76205 34.9712 2.27488 36.401 2.27488C39.8509 2.27488 42.6572 5.08156 42.6572 8.53114C42.6572 11.3949 40.721 13.8093 38.0908 14.5497C37.5526 14.7008 36.9872 14.7878 36.401 14.7878C36.1995 14.7878 36.0018 14.776 35.8049 14.7571C35.7641 15.5762 35.6356 16.371 35.4221 17.1326C35.7471 17.1042 36.0687 17.0631 36.401 17.0631C36.8632 17.0631 37.3156 17.0986 37.7635 17.1522C43.3946 17.8288 47.7766 22.6277 47.7766 28.4379H50.0515C50.0515 22.5668 46.3181 17.5638 41.1061 15.6408Z" fill="black"/>
<path d="M13.6501 17.0631C13.9831 17.0631 14.3044 17.1042 14.6294 17.1326C14.4159 16.371 14.287 15.5762 14.2465 14.7571C14.0504 14.776 13.8516 14.7878 13.6501 14.7878C13.0643 14.7878 12.4993 14.7008 11.9607 14.5497C9.33052 13.8093 7.39389 11.3949 7.39389 8.53114C7.39389 5.08156 10.2006 2.27488 13.6501 2.27488C15.0807 2.27488 16.3963 2.76205 17.4516 3.57276C18.0582 4.03953 18.5756 4.6133 18.9778 5.26753C19.604 4.84347 20.2791 4.48892 20.9889 4.20244C20.5875 3.52363 20.0969 2.90531 19.5296 2.36446C17.9977 0.902913 15.9292 0 13.6501 0C8.94577 0 5.11862 3.82676 5.11862 8.53114C5.11862 11.4969 6.64138 14.1116 8.945 15.6408C3.73341 17.5638 0 22.5668 0 28.4379H2.27526C2.27526 22.6277 6.6565 17.8288 12.2876 17.1522C12.7355 17.0986 13.1887 17.0631 13.6501 17.0631Z" fill="black"/>
</svg>
