<svg width="24" height="67" viewBox="0 0 24 67" fill="none" xmlns="http://www.w3.org/2000/svg">
<path d="M12 7.84185C12.3183 7.84185 12.6235 7.96827 12.8485 8.19332C13.0736 8.41836 13.2 8.72359 13.2 9.04185V13.8418C13.2 14.1601 13.0736 14.4653 12.8485 14.6904C12.6235 14.9154 12.3183 15.0418 12 15.0418C11.6817 15.0418 11.3765 14.9154 11.1515 14.6904C10.9264 14.4653 10.8 14.1601 10.8 13.8418V9.04185C10.8 8.72359 10.9264 8.41836 11.1515 8.19332C11.3765 7.96827 11.6817 7.84185 12 7.84185ZM21.6 27.0418C21.6 29.5879 20.5886 32.0297 18.7882 33.8301C16.9879 35.6304 14.5461 36.6418 12 36.6418C9.45392 36.6418 7.01212 35.6304 5.21177 33.8301C3.41143 32.0297 2.4 29.5879 2.4 27.0418V12.6418C2.4 10.0958 3.41143 7.65397 5.21177 5.85362C7.01212 4.05327 9.45392 3.04185 12 3.04185C14.5461 3.04185 16.9879 4.05327 18.7882 5.85362C20.5886 7.65397 21.6 10.0958 21.6 12.6418V27.0418ZM12 0.641846C8.8174 0.641846 5.76516 1.90613 3.51472 4.15656C1.26428 6.407 0 9.45925 0 12.6418V27.0418C0 30.2244 1.26428 33.2767 3.51472 35.5271C5.76516 37.7776 8.8174 39.0418 12 39.0418C15.1826 39.0418 18.2348 37.7776 20.4853 35.5271C22.7357 33.2767 24 30.2244 24 27.0418V12.6418C24 9.45925 22.7357 6.407 20.4853 4.15656C18.2348 1.90613 15.1826 0.641846 12 0.641846Z" fill="#09090B"/>
<path d="M5.80033 56.0628L12.0083 62.2708L18.2163 56.0628C18.3645 55.9147 18.5403 55.7972 18.7339 55.717C18.9274 55.6368 19.1348 55.5956 19.3443 55.5956C19.5538 55.5956 19.7613 55.6368 19.9548 55.717C20.1483 55.7972 20.3242 55.9147 20.4723 56.0628C20.6205 56.2109 20.738 56.3868 20.8181 56.5803C20.8983 56.7739 20.9396 56.9813 20.9396 57.1908C20.9396 57.4003 20.8983 57.6077 20.8181 57.8013C20.738 57.9948 20.6205 58.1707 20.4723 58.3188L13.1283 65.6628C12.9803 65.8111 12.8045 65.9288 12.6109 66.0091C12.4174 66.0894 12.2099 66.1307 12.0003 66.1307C11.7908 66.1307 11.5833 66.0894 11.3897 66.0091C11.1962 65.9288 11.0204 65.8111 10.8723 65.6628L3.52833 58.3188C3.38001 58.1708 3.26233 57.995 3.18204 57.8014C3.10175 57.6079 3.06042 57.4004 3.06042 57.1908C3.06042 56.9813 3.10175 56.7738 3.18204 56.5802C3.26233 56.3867 3.38001 56.2108 3.52833 56.0628C4.15233 55.4548 5.17633 55.4388 5.80033 56.0628Z" fill="#09090B"/>
</svg>
