<?xml version="1.0" encoding="UTF-8"?>
<!DOCTYPE svg PUBLIC "-//W3C//DTD SVG 1.1//EN" "http://www.w3.org/Graphics/SVG/1.1/DTD/svg11.dtd">
<!-- Creator: CorelDRAW 2020 (64 Bit) -->
<svg xmlns="http://www.w3.org/2000/svg" xml:space="preserve" width="30.1711mm" height="27.0189mm" version="1.1" style="shape-rendering:geometricPrecision; text-rendering:geometricPrecision; image-rendering:optimizeQuality; fill-rule:evenodd; clip-rule:evenodd"
viewBox="0 0 3002.91 2689.17"
 xmlns:xlink="http://www.w3.org/1999/xlink"
 xmlns:xodm="http://www.corel.com/coreldraw/odm/2003">
 <defs>
  <style type="text/css">
   <![CDATA[
    .fil0 {fill:black}
    .fil1 {fill:black;fill-rule:nonzero}
   ]]>
  </style>
 </defs>
 <g id="Camada_x0020_1">
  <metadata id="CorelCorpID_0Corel-Layer"/>
  <g id="_1892292464320">
   <path class="fil0" d="M923.37 851.21l25.68 0c32.01,0 65.25,-2.77 97.15,-5.44 44.38,-3.74 88.75,-8.39 132.99,-13.56 48.04,-5.61 96.12,-11.81 144.23,-19.18l5.49 0 -20.21 48.11 -449.71 0 0 -847.27 64.39 0 0 837.34zm-2.13 1754.76l-99.7 0c-9.81,26.27 -20.72,51.9 -31.11,77.99l-0.52 1.29 -11.53 0 1.2 -2.85c14.39,-34.27 27.45,-69.13 40.9,-103.79l54.26 -139.86 4.12 0 95.59 246.49 -22.76 0 -30.46 -79.29zm120.19 -132.42l0 211.19 -7.56 0 0 -223.01 -10.45 -15.41 0 -3.64 23.14 0 138.21 204.6 0 -206.36 8.47 0 0 248.25 -5.06 0 -146.75 -215.62zm315.48 -30.86c74.46,0 121.3,42.8 121.3,118.33 0,76.24 -46.88,124.24 -123.23,124.24l-78.72 0 0 -242.57 80.65 0zm503.6 197.08l4.92 4.31 -1.32 1.54c-1.88,2.17 -3.82,4.27 -5.84,6.3 -48.11,48.16 -126.23,48.1 -174.37,0 -48.16,-48.13 -48.12,-126.21 0,-174.36 48.14,-48.17 126.2,-48.22 174.37,-0.07 1.43,1.43 2.84,2.91 4.17,4.42l1.31 1.49 -17.27 16.3 -1.4 -1.52c-1.26,-1.37 -2.55,-2.72 -3.92,-4.04 -40.34,-40.38 -108.94,-55.81 -152.71,-12.04 -43.75,43.75 -28.17,112.51 12.16,152.82 40.25,40.26 109.33,56.22 153.11,12.45 1.91,-1.91 3.7,-3.93 5.44,-6l1.35 -1.6zm257.08 -164.2c48.15,48.16 48.13,126.26 0,174.43 -48.13,48.15 -126.23,48.13 -174.38,0 -48.14,-48.14 -48.11,-126.21 0,-174.37 48.14,-48.17 126.21,-48.21 174.38,-0.06zm101.79 184.48c4.71,4.73 4.71,12.33 0.01,17.03l-2.17 2.25c-4.73,4.71 -12.39,4.71 -17.13,-0.03l-2.14 -2.19c-4.72,-4.73 -4.72,-12.33 -0.02,-17.03l2.17 -2.24c4.73,-4.72 12.39,-4.72 17.14,0.02l2.14 2.19zm-1718.56 -824.36l-359.67 0c-35.02,94.03 -74.05,185.71 -111.24,279.03l-0.52 1.28 -29.39 0 1.19 -2.84c50.92,-121.21 97.11,-244.52 144.66,-367.08l190.61 -491.22 7.43 0 333.95 861.14 -69.31 0 -107.71 -280.31zm917.5 -569.17l20.57 0 0 567.12c0,188.62 -93.43,296.24 -285.78,296.24 -188.19,0 -286.99,-103.39 -286.99,-290.42l0 -570.73 64.39 0 0 564.91c0,162.42 72.04,261.99 241.09,261.99 162.48,0 246.72,-101.7 246.72,-260.59l0 -568.52zm582.68 388.03c109.32,52.37 213.16,105.52 213.16,242.78 0,151.26 -128.64,232.54 -268.51,232.54 -84.38,0 -184.68,-26.56 -259.15,-65.13l-1.69 -0.89 31.65 -73.8 2.14 2.05c58.52,56.29 145.47,130.45 231.08,130.45 108.1,0 207.14,-79.13 207.14,-191.66 0,-115.47 -92.24,-168.49 -184.11,-212.36l-58.08 -27.74c-99.02,-47.29 -214.17,-104.59 -214.17,-231.13 0,-136 123.59,-204.81 247.61,-204.81 77.13,0 165.91,25.07 231.55,65.2l1.54 0.95 -31.06 68.97 -2.09 -1.96c-58.41,-54.67 -122.04,-125.24 -208.79,-125.24 -96.68,0 -178.99,68.27 -178.99,167.95 0,109.26 97.36,155.11 182.89,196.09l57.88 27.73zm726.79 -375.89l0 837.34 -64.39 0 0 -836.14 -32.71 0c-36.67,0 -74.02,8.19 -109.52,16.75 -42.49,10.24 -84.32,21.46 -127.8,29.06l-5.14 0 16.24 -56.95 582.26 0 16.15 60.97 -5.42 -0.03c-43.51,-7.64 -85.13,-20.02 -127.62,-31.67 -35.18,-9.64 -72.89,-19.34 -109.55,-19.34l-32.52 0zm-759.53 -697.83l-359.68 0c-35.02,94.04 -74.05,185.71 -111.24,279.03l-0.51 1.29 -29.4 0 1.19 -2.85c50.92,-121.21 97.11,-244.52 144.67,-367.07l190.6 -491.23 7.43 0 333.95 861.15 -69.31 0 -107.7 -280.32zm-1144.35 2018.21l94.65 0 -47.36 -122.08 -40.67 105.1 -6.63 16.98zm473.49 -149.24l0 223.52c19.76,3.54 38.94,5.17 59.1,5.17 68.28,0 98.6,-52.19 98.6,-115.47 0,-61.23 -36.98,-113.21 -101.49,-113.21l-56.21 0zm815.62 195.64c43.79,-43.79 27.71,-112.99 -12.55,-153.22 -40.37,-40.35 -109,-55.82 -152.77,-12.05 -43.74,43.74 -28.08,112.53 12.21,152.82 40.25,40.26 109.34,56.22 153.11,12.45zm-1967.49 -823.91l349.89 0 -175.04 -451.24 -148.61 384.1 -26.24 67.13zm1467.44 -1254.84l349.89 0 -175.04 -451.24 -148.61 384.1 -26.24 67.13z"/>
   <path class="fil1" d="M485.68 312.16l0 11.57 -67.51 0 0 -93.04 65.65 0 0 11.57 -52.36 0 0 28.57 46.65 0 0 11.3 -46.65 0 0 30.04 54.22 0zm-37.14 195.9c-7.01,0 -13.75,-1.08 -20.27,-3.25 -6.51,-2.17 -11.63,-4.99 -15.35,-8.44l4.92 -10.37c3.54,3.19 8.08,5.78 13.63,7.77 5.53,2 11.23,3 17.08,3 7.7,0 13.47,-1.3 17.28,-3.92 3.8,-2.62 5.71,-6.09 5.71,-10.43 0,-3.19 -1.05,-5.78 -3.13,-7.77 -2.08,-2 -4.65,-3.52 -7.7,-4.59 -3.07,-1.06 -7.38,-2.26 -12.96,-3.59 -7.01,-1.68 -12.65,-3.36 -16.95,-5.05 -4.3,-1.68 -7.97,-4.28 -11.03,-7.77 -3.06,-3.5 -4.59,-8.22 -4.59,-14.16 0,-4.96 1.31,-9.43 3.92,-13.42 2.62,-3.99 6.58,-7.18 11.89,-9.57 5.31,-2.39 11.92,-3.58 19.81,-3.58 5.49,0 10.9,0.71 16.21,2.13 5.31,1.41 9.87,3.45 13.69,6.11l-4.38 10.63c-3.9,-2.48 -8.06,-4.36 -12.5,-5.64 -4.43,-1.28 -8.77,-1.93 -13.02,-1.93 -7.53,0 -13.18,1.37 -16.95,4.12 -3.76,2.75 -5.64,6.29 -5.64,10.63 0,3.19 1.06,5.78 3.18,7.77 2.13,2 4.77,3.54 7.91,4.66 3.15,1.1 7.41,2.28 12.82,3.51 7.01,1.69 12.63,3.37 16.88,5.06 4.26,1.68 7.91,4.25 10.97,7.71 3.06,3.45 4.58,8.1 4.58,13.95 0,4.87 -1.32,9.32 -3.98,13.36 -2.66,4.03 -6.69,7.22 -12.09,9.56 -5.4,2.35 -12.05,3.52 -19.94,3.52zm-6.38 100.74l-31.9 0 0 -11.57 76.96 0 0 11.57 -31.9 0 0 81.46 -13.16 0 0 -81.46z"/>
   <path class="fil1" d="M2588.52 221.94l0 11.49 -66.47 0 0 -8.98 37.66 -36.34c4.58,-4.4 7.66,-8.21 9.25,-11.43 1.58,-3.21 2.38,-6.46 2.38,-9.71 0,-4.84 -1.7,-8.61 -5.09,-11.3 -3.39,-2.69 -8.26,-4.03 -14.6,-4.03 -10.22,0 -18.1,3.35 -23.65,10.04l-8.99 -7.79c3.61,-4.41 8.35,-7.84 14.2,-10.3 5.86,-2.47 12.4,-3.7 19.62,-3.7 9.69,0 17.4,2.31 23.13,6.94 5.72,4.62 8.59,10.9 8.59,18.82 0,4.94 -1.06,9.6 -3.17,14 -2.12,4.41 -6.12,9.43 -12.02,15.07l-28.28 27.22 47.44 0zm-33.36 194.75c-7.32,0 -13.81,-1.87 -19.49,-5.62 -5.68,-3.74 -10.15,-9.18 -13.42,-16.31 -3.25,-7.14 -4.89,-15.6 -4.89,-25.37 0,-9.78 1.63,-18.23 4.89,-25.37 3.26,-7.14 7.73,-12.57 13.42,-16.31 5.67,-3.74 12.17,-5.61 19.49,-5.61 7.22,0 13.68,1.87 19.35,5.61 5.68,3.74 10.16,9.18 13.42,16.31 3.25,7.14 4.89,15.59 4.89,25.37 0,9.77 -1.63,18.23 -4.89,25.37 -3.25,7.14 -7.73,12.57 -13.42,16.31 -5.67,3.75 -12.13,5.62 -19.35,5.62zm0 -11.76c7.4,0 13.32,-3.04 17.77,-9.12 4.45,-6.08 6.67,-14.89 6.67,-26.43 0,-11.54 -2.22,-20.34 -6.67,-26.43 -4.45,-6.08 -10.37,-9.12 -17.77,-9.12 -7.49,0 -13.46,3.04 -17.91,9.12 -4.45,6.08 -6.67,14.89 -6.67,26.43 0,11.54 2.22,20.34 6.67,26.43 4.45,6.08 10.41,9.12 17.91,9.12zm10.5 100.42l0 92.48 -13.09 0 0 -80.99 -20.87 0 0 -11.5 33.96 0zm9.77 226.18c5.29,2.03 9.34,4.95 12.16,8.73 2.82,3.78 4.22,8.32 4.22,13.61 0,5.55 -1.49,10.37 -4.49,14.47 -3,4.09 -7.27,7.25 -12.82,9.45 -5.54,2.2 -12.06,3.3 -19.55,3.3 -7.4,0 -13.85,-1.1 -19.36,-3.3 -5.5,-2.2 -9.75,-5.35 -12.75,-9.45 -3,-4.1 -4.49,-8.92 -4.49,-14.47 0,-5.29 1.38,-9.82 4.16,-13.61 2.77,-3.78 6.8,-6.7 12.09,-8.73 -4.24,-2.01 -7.45,-4.71 -9.65,-8.05 -2.2,-3.34 -3.3,-7.31 -3.3,-11.89 0,-5.11 1.39,-9.55 4.17,-13.35 2.77,-3.78 6.67,-6.69 11.68,-8.72 5.03,-2.02 10.84,-3.04 17.45,-3.04 6.69,0 12.57,1.02 17.64,3.04 5.07,2.03 8.99,4.94 11.75,8.72 2.78,3.79 4.16,8.24 4.16,13.35 0,4.49 -1.12,8.44 -3.36,11.82 -2.25,3.39 -5.48,6.11 -9.71,8.12zm-20.47 -34.35c-6.26,0 -11.19,1.34 -14.8,4.03 -3.61,2.69 -5.41,6.32 -5.41,10.9 0,4.58 1.78,8.2 5.34,10.84 3.57,2.65 8.53,3.96 14.87,3.96 6.42,0 11.47,-1.31 15.13,-3.96 3.65,-2.64 5.47,-6.26 5.47,-10.84 0,-4.58 -1.86,-8.21 -5.6,-10.9 -3.75,-2.69 -8.75,-4.03 -15,-4.03zm0 73.19c7.31,0 13.08,-1.51 17.3,-4.55 4.24,-3.05 6.35,-7.17 6.35,-12.36 0,-5.11 -2.11,-9.14 -6.35,-12.08 -4.22,-2.95 -9.99,-4.43 -17.3,-4.43 -7.32,0 -13.04,1.48 -17.18,4.43 -4.14,2.95 -6.21,6.98 -6.21,12.08 0,5.2 2.07,9.32 6.21,12.36 4.14,3.04 9.86,4.55 17.18,4.55z"/>
  </g>
 </g>
</svg>
